<svg xmlns="http://www.w3.org/2000/svg" version="1.1" xmlns:xlink="http://www.w3.org/1999/xlink" xmlns:svgjs="http://svgjs.dev/svgjs" width="1000" height="2352" viewBox="0 0 1000 2352"><g transform="matrix(1,0,0,1,-1.3491736063862163,0.9522267206477864)"><svg viewBox="0 0 105 247" data-background-color="#ffffff" preserveAspectRatio="xMidYMid meet" height="2352" width="1000" xmlns="http://www.w3.org/2000/svg" xmlns:xlink="http://www.w3.org/1999/xlink"><g id="tight-bounds" transform="matrix(1,0,0,1,0.14166322867055214,-0.09999999999999432)"><svg viewBox="0 0 104.71666666666665 247.2" height="247.2" width="104.71666666666665"><g><svg viewBox="0 0 104.71666666666665 247.2" height="247.2" width="104.71666666666665"><g><svg viewBox="0 0 104.71666666666665 247.2" height="247.2" width="104.71666666666665"><g id="textblocktransform"><svg viewBox="0 0 104.71666666666665 247.2" height="247.2" width="104.71666666666665" id="textblock"><g><svg viewBox="0 0 104.71666666666665 247.2" height="247.2" width="104.71666666666665"><g transform="matrix(1,0,0,1,0,0)"><svg width="104.71666666666665" viewBox="1.7999999523162842 -35.5 15.249999046325684 36" height="247.2" data-palette-color="#000000"><path d="M8.4 0.5L8.4 0.5Q4.9 0.5 3.35-0.43 1.8-1.35 1.8-2.05L1.8-2.05Q1.8-2.45 1.98-2.88 2.15-3.3 2.55-3.65L2.55-3.65Q3.35-2.9 4.67-2.35 6-1.8 8.3-1.8L8.3-1.8Q11.7-1.8 13.2-3.63 14.7-5.45 14.7-8.3L14.7-8.3Q14.7-10.55 13.9-12.33 13.1-14.1 11-16.25L11-16.25 5.45-21.85Q3.75-23.7 2.85-25.33 1.95-26.95 1.95-28.9L1.95-28.9Q1.95-31.8 4.13-33.65 6.3-35.5 10.2-35.5L10.2-35.5Q13.5-35.5 14.98-34.8 16.45-34.1 16.45-33.4L16.45-33.4Q16.45-33.05 16.28-32.68 16.1-32.3 15.8-32L15.8-32Q15.2-32.5 13.78-32.98 12.35-33.45 10.25-33.45L10.25-33.45Q7.6-33.45 5.95-32.2 4.3-30.95 4.3-28.95L4.3-28.95Q4.3-27.35 5.13-26.05 5.95-24.75 7.2-23.4L7.2-23.4 13.35-17.25Q15.5-15 16.28-13.03 17.05-11.05 17.05-8.55L17.05-8.55Q17.05-5.95 16.18-3.9 15.3-1.85 13.4-0.68 11.5 0.5 8.4 0.5Z" opacity="1" transform="matrix(1,0,0,1,0,0)" fill="#000000" class="undefined-text-0" data-fill-palette-color="primary" id="text-0"></path></svg></g></svg></g></svg></g></svg></g></svg></g><defs></defs></svg><rect width="104.71666666666665" height="247.2" fill="none" stroke="none" visibility="hidden"></rect></g></svg></g></svg>