<svg xmlns="http://www.w3.org/2000/svg" version="1.1"  width="1000" height="199" viewBox="0 0 1000 199"><g transform="matrix(1,0,0,1,-0.6060604494323911,0.2726677755756839)"><svg viewBox="0 0 396 79" data-background-color="#ffffff" preserveAspectRatio="xMidYMid meet" height="199" width="1000" xmlns="http://www.w3.org/2000/svg" xmlns:xlink="http://www.w3.org/1999/xlink"><g id="tight-bounds" transform="matrix(1,0,0,1,0.24000006202470558,-0.10824499633406504)"><svg viewBox="0 0 395.52 79.21648966724047" height="79.21648966724047" width="395.52"><g><svg viewBox="0 0 395.52 79.21648966724047" height="79.21648966724047" width="395.52"><g><svg viewBox="0 0 395.52 79.21648966724047" height="79.21648966724047" width="395.52"><g id="textblocktransform"><svg viewBox="0 0 395.52 79.21648966724047" height="79.21648966724047" width="395.52" id="textblock"><g><svg viewBox="0 0 395.52 47.2126800394607" height="47.2126800394607" width="395.52"><g><svg viewBox="0 0 395.52 47.2126800394607" height="47.2126800394607" width="395.52"><g transform="matrix(1,0,0,1,0,0)"><svg width="395.52" viewBox="1.6500000953674316 -35.25 304.07000732421875 36.29999923706055" height="47.2126800394607" data-palette-color="#000000"><path d="M14.15 1.05Q11.15 1.05 8.5-0.1 5.85-1.25 4.03-3.3 2.2-5.35 1.65-7.95L1.65-7.95 5.35-9.5Q6.15-6.35 8.7-4.55 11.25-2.75 14.15-2.75L14.15-2.75Q17.25-2.75 19.4-4.67 21.55-6.6 21.55-9.7L21.55-9.7Q21.55-11.85 20.3-13.25 19.05-14.65 15.9-16.15L15.9-16.15Q11.9-18.1 9.83-19.33 7.75-20.55 6.38-22.38 5-24.2 5-26.75L5-26.75Q5-29.2 6.33-31.13 7.65-33.05 9.88-34.13 12.1-35.2 14.65-35.2L14.65-35.2Q16.8-35.2 18.68-34.33 20.55-33.45 21.68-32 22.8-30.55 22.8-28.9L22.8-28.9Q22.8-28.65 22.7-28.05L22.7-28.05 18.8-28.3Q19-29.1 18.38-29.83 17.75-30.55 16.65-30.98 15.55-31.4 14.55-31.4L14.55-31.4Q12.35-31.4 10.73-30.08 9.1-28.75 9.1-26.9L9.1-26.9Q9.1-25.4 10.18-24.2 11.25-23 12.7-22.13 14.15-21.25 16.45-20.1L16.45-20.1 18.25-19.2Q22.2-17.05 23.93-14.9 25.65-12.75 25.65-9.65L25.65-9.65Q25.65-6.55 24.08-4.1 22.5-1.65 19.85-0.3 17.2 1.05 14.15 1.05L14.15 1.05ZM58.34-34.3Q61.3-34.3 63.57-32.9 65.84-31.5 67.09-29 68.34-26.5 68.34-23.35L68.34-23.35Q68.34-18.2 64.94-15.25 61.55-12.3 54.99-12.3L54.99-12.3 51.3-12.4 51.3 0.05 47.2 0.05 47.2-34.3 58.34-34.3ZM55.59-16.1Q59.84-16.1 62.05-18.03 64.25-19.95 64.25-23.5L64.25-23.5Q64.25-26.8 62.45-28.65 60.64-30.5 57.7-30.5L57.7-30.5 51.3-30.5 51.3-16.25 53.05-16.2Q54.95-16.1 55.59-16.1L55.59-16.1ZM86.64 0.05L101.29-35.25 102.94-35.25 117.69 0.05 113.34 0.05 108.64-11 95.59-11 90.99 0.05 86.64 0.05ZM107.04-14.7L102.79-25.4 102.39-26.7 102.09-27.85 101.74-26.75 101.34-25.4 97.14-14.7 107.04-14.7ZM162.24-3.65L164.03-0.5Q163.13 0.5 161.13 0.5L161.13 0.5Q158.53 0.5 156.94-1.6L156.94-1.6 151.13-9.55Q150.19-10.8 149.46-11.55 148.74-12.3 147.51-12.83 146.28-13.35 144.49-13.4L144.49-13.4 144.49-17.25 149.28-17.25Q152.24-17.25 153.94-18.98 155.63-20.7 155.63-23.7L155.63-23.7Q155.63-26.7 154.01-28.6 152.38-30.5 149.84-30.5L149.84-30.5 142.63-30.5 142.63 0.05 138.53 0.05 138.53-34.3 150.03-34.3Q152.74-34.3 154.96-32.9 157.19-31.5 158.46-29.18 159.74-26.85 159.74-24.2L159.74-24.2Q159.74-21 158.03-18.45 156.34-15.9 153.88-15.2L153.88-15.2Q152.69-14.85 149.88-14.85L149.88-14.85Q151.34-14.45 152.01-14.03 152.69-13.6 153.49-12.6L153.49-12.6 155.34-10.1Q159.24-4.85 159.74-4.2L159.74-4.2Q160.19-3.65 160.51-3.43 160.84-3.2 161.19-3.2L161.19-3.2Q161.78-3.2 162.24-3.65L162.24-3.65ZM192.88 0.05L192.88-30.5 181.53-30.5 181.53-34.3 208.33-34.3 208.33-30.5 196.98-30.5 196.98 0.05 192.88 0.05ZM225.97 0.05L240.63-35.25 242.28-35.25 257.02 0.05 252.68 0.05 247.97-11 234.92-11 230.32 0.05 225.97 0.05ZM246.38-14.7L242.13-25.4 241.72-26.7 241.42-27.85 241.07-26.75 240.67-25.4 236.47-14.7 246.38-14.7ZM277.87 0.05L277.87-34.8 279.62-34.8 301.07-8 301.77-6.75 301.72-8.15 301.67-34.35 305.72-34.35 305.72 0.05 303.62 0.05 300.72-2.8 283.67-23.3 281.72-25.9 281.97-22.6 281.97 0.05 277.87 0.05Z" opacity="1" transform="matrix(1,0,0,1,0,0)" fill="#000000" class="undefined-text-0" data-fill-palette-color="primary" id="text-0"></path></svg></g></svg></g></svg></g><g transform="matrix(1,0,0,1,75.54431999999998,58.358460692456426)"><svg viewBox="0 0 244.43136 20.85802897478405" height="20.85802897478405" width="244.43136"><g transform="matrix(1,0,0,1,0,0)"><svg width="244.43136" viewBox="1.2000000476837158 -38.849998474121094 572.97998046875 48.89999771118164" height="20.85802897478405" data-palette-color="#000000"><path d="M25.2-34.25L25.2-34.25 23.25-29.8Q21.2-30.55 19.18-31 17.15-31.45 15.3-31.45L15.3-31.45Q12.15-31.45 10.28-30.15 8.4-28.85 8.4-26.85L8.4-26.85Q8.4-25.15 9.75-24.13 11.1-23.1 13.1-22.28 15.1-21.45 17.45-20.63 19.8-19.8 21.8-18.5 23.8-17.2 25.15-15.23 26.5-13.25 26.5-10.15L26.5-10.15Q26.5-7.75 25.63-5.83 24.75-3.9 23.03-2.5 21.3-1.1 18.73-0.35 16.15 0.4 12.7 0.4L12.7 0.4Q10.5 0.4 8.72 0.1 6.95-0.2 5.53-0.68 4.1-1.15 3.03-1.7 1.95-2.25 1.2-2.7L1.2-2.7 3.6-7.45Q5.6-6.3 8.05-5.6 10.5-4.9 12.5-4.9L12.5-4.9Q13.5-4.9 14.98-5.15 16.45-5.4 17.8-6.03 19.15-6.65 20.13-7.7 21.1-8.75 21.1-10.35L21.1-10.35Q21.1-11.8 20.33-12.83 19.55-13.85 18.28-14.63 17-15.4 15.38-16.03 13.75-16.65 12.05-17.32 10.35-18 8.72-18.75 7.1-19.5 5.83-20.58 4.55-21.65 3.78-23.08 3-24.5 3-26.5L3-26.5Q3-28.35 3.75-30.15 4.5-31.95 6-33.35 7.5-34.75 9.73-35.6 11.95-36.45 14.9-36.45L14.9-36.45Q16.7-36.45 18.43-36.15 20.15-35.85 21.55-35.48 22.95-35.1 23.93-34.75 24.9-34.4 25.2-34.25ZM32.2-20.85L32.2-30.1 36.45-30.1 36.45-20.85 42.05-20.85 42.05-17.05 36.45-17.05 36.45 0 32.2 0 32.2-17.05 28.45-17.05 28.45-20.85 32.2-20.85ZM58.05-21.45L57.09-15.95Q55.7-15.95 54.39-15.58 53.09-15.2 52.07-14.45 51.05-13.7 50.45-12.58 49.84-11.45 49.84-10L49.84-10 49.84 0 45.59 0 45.59-20.9 49.34-20.9Q49.45-19.35 49.52-18.07 49.59-16.8 49.7-15.55L49.7-15.55Q50.34-16.9 51.39-18 52.45-19.1 53.64-19.85 54.84-20.6 55.99-21.03 57.14-21.45 58.05-21.45L58.05-21.45ZM75.24-5.55L78.44-2.45Q76.94-1.1 74.79-0.3 72.64 0.5 70.39 0.5L70.39 0.5Q68.09 0.5 66.07-0.38 64.04-1.25 62.54-2.73 61.04-4.2 60.17-6.2 59.29-8.2 59.29-10.45L59.29-10.45Q59.29-12.7 60.17-14.7 61.04-16.7 62.54-18.2 64.04-19.7 66.02-20.58 67.99-21.45 70.24-21.45L70.24-21.45Q73.79-21.45 76.42-19.33 79.04-17.2 80.19-13.75L80.19-13.75Q78.64-13.2 76.64-12.4 74.64-11.6 72.49-10.73 70.34-9.85 68.19-9 66.04-8.15 64.19-7.45L64.19-7.45Q65.04-5.75 66.67-4.73 68.29-3.7 70.29-3.7L70.29-3.7Q71.64-3.7 73.02-4.2 74.39-4.7 75.24-5.55L75.24-5.55ZM74.84-14.75L74.84-14.75Q74.24-16 72.94-16.63 71.64-17.25 70.29-17.25L70.29-17.25Q68.84-17.25 67.62-16.7 66.39-16.15 65.49-15.23 64.59-14.3 64.07-13.1 63.54-11.9 63.54-10.65L63.54-10.65Q63.54-10.4 63.57-10.3 63.59-10.2 63.59-10.15L63.59-10.15Q64.89-10.65 66.42-11.28 67.94-11.9 69.44-12.53 70.94-13.15 72.34-13.73 73.74-14.3 74.84-14.75ZM83.89 0L83.89-20.9 87.64-20.9Q87.74-19.35 87.81-18.07 87.89-16.8 87.99-15.55L87.99-15.55Q89.14-18.25 91.27-19.85 93.39-21.45 96.49-21.45L96.49-21.45Q99.64-21.45 101.54-19.7 103.44-17.95 103.54-15.2L103.54-15.2 103.54 0 99.24 0 99.24-13.25Q99.14-14.85 98.14-15.98 97.14-17.1 94.99-17.2L94.99-17.2Q93.49-17.2 92.24-16.68 90.99-16.15 90.09-15.25 89.19-14.35 88.67-13.1 88.14-11.85 88.14-10.35L88.14-10.35 88.14 0 83.89 0ZM107.94-10.4L107.94-10.4Q107.94-12.75 108.79-14.78 109.64-16.8 111.09-18.28 112.54-19.75 114.49-20.6 116.44-21.45 118.64-21.45L118.64-21.45Q120.34-21.45 121.66-21 122.99-20.55 123.89-19.95 124.79-19.35 125.31-18.78 125.84-18.2 125.99-17.95L125.99-17.95Q125.99-18.65 126.09-19.43 126.19-20.2 126.19-20.9L126.19-20.9 130.29-20.9 130.29-0.95Q130.29 4.25 127.24 7.15 124.19 10.05 118.99 10.05L118.99 10.05Q117.19 10.05 115.76 9.68 114.34 9.3 113.16 8.7 111.99 8.1 111.01 7.3 110.04 6.5 109.09 5.65L109.09 5.65 111.84 2.75Q113.39 4.2 115.01 5.05 116.64 5.9 118.89 5.9L118.89 5.9Q122.24 5.9 124.09 4.3 125.94 2.7 125.99-0.15L125.99-0.15 125.99-1.6Q125.99-2 126.09-2.48 126.19-2.95 126.19-3.2L126.19-3.2Q125.74-2.6 125.06-1.93 124.39-1.25 123.49-0.73 122.59-0.2 121.39 0.15 120.19 0.5 118.69 0.5L118.69 0.5Q116.34 0.5 114.39-0.35 112.44-1.2 110.99-2.68 109.54-4.15 108.74-6.13 107.94-8.1 107.94-10.4ZM112.24-10.5L112.24-10.5Q112.24-9.05 112.76-7.8 113.29-6.55 114.19-5.65 115.09-4.75 116.34-4.23 117.59-3.7 119.09-3.7L119.09-3.7Q120.59-3.7 121.86-4.23 123.14-4.75 124.06-5.68 124.99-6.6 125.49-7.83 125.99-9.05 125.99-10.5L125.99-10.5Q125.99-11.95 125.49-13.18 124.99-14.4 124.06-15.3 123.14-16.2 121.86-16.73 120.59-17.25 119.09-17.25L119.09-17.25Q117.59-17.25 116.34-16.73 115.09-16.2 114.19-15.3 113.29-14.4 112.76-13.18 112.24-11.95 112.24-10.5ZM138.09-20.85L138.09-30.1 142.34-30.1 142.34-20.85 147.94-20.85 147.94-17.05 142.34-17.05 142.34 0 138.09 0 138.09-17.05 134.34-17.05 134.34-20.85 138.09-20.85ZM151.48 0L151.48-38.85 155.73-38.85 155.73-15.85Q156.83-18.35 158.83-19.88 160.83-21.4 163.98-21.45L163.98-21.45Q167.18-21.5 169.11-19.75 171.03-18 171.13-15.2L171.13-15.2 171.13 0 166.83 0 166.83-13.25Q166.73-14.85 165.73-15.98 164.73-17.1 162.58-17.2L162.58-17.2Q161.08-17.2 159.83-16.68 158.58-16.15 157.68-15.25 156.78-14.35 156.26-13.1 155.73-11.85 155.73-10.35L155.73-10.35 155.73 0 151.48 0ZM181.98-10.25L181.98-10.25Q181.98-12.55 182.85-14.58 183.73-16.6 185.23-18.13 186.73-19.65 188.7-20.55 190.68-21.45 192.93-21.45L192.93-21.45Q194.43-21.45 195.68-21.08 196.93-20.7 197.83-20.15 198.73-19.6 199.28-19 199.83-18.4 200.03-17.95L200.03-17.95 200.23-20.9 204.33-20.9 204.33 0 200.03 0 200.03-2.65Q199.78-2.25 199.23-1.7 198.68-1.15 197.8-0.68 196.93-0.2 195.73 0.15 194.53 0.5 192.98 0.5L192.98 0.5Q190.58 0.5 188.55-0.38 186.53-1.25 185.08-2.73 183.63-4.2 182.8-6.15 181.98-8.1 181.98-10.25ZM186.28-10.5L186.28-10.5Q186.28-9.05 186.8-7.8 187.33-6.55 188.23-5.65 189.13-4.75 190.38-4.23 191.63-3.7 193.13-3.7L193.13-3.7Q194.63-3.7 195.9-4.23 197.18-4.75 198.1-5.68 199.03-6.6 199.53-7.83 200.03-9.05 200.03-10.5L200.03-10.5Q200.03-11.95 199.53-13.18 199.03-14.4 198.1-15.3 197.18-16.2 195.9-16.73 194.63-17.25 193.13-17.25L193.13-17.25Q191.63-17.25 190.38-16.73 189.13-16.2 188.23-15.3 187.33-14.4 186.8-13.18 186.28-11.95 186.28-10.5ZM210.33 0L210.33-20.9 214.08-20.9Q214.18-19.35 214.25-18.07 214.33-16.8 214.43-15.55L214.43-15.55Q215.58-18.25 217.7-19.85 219.83-21.45 222.93-21.45L222.93-21.45Q226.08-21.45 227.98-19.7 229.88-17.95 229.98-15.2L229.98-15.2 229.98 0 225.68 0 225.68-13.25Q225.58-14.85 224.58-15.98 223.58-17.1 221.43-17.2L221.43-17.2Q219.93-17.2 218.68-16.68 217.43-16.15 216.53-15.25 215.63-14.35 215.1-13.1 214.58-11.85 214.58-10.35L214.58-10.35 214.58 0 210.33 0ZM234.37-10.45L234.37-10.45Q234.37-12.9 235.2-14.93 236.02-16.95 237.47-18.4 238.92-19.85 240.9-20.65 242.87-21.45 245.17-21.45L245.17-21.45Q246.72-21.45 247.95-21.08 249.17-20.7 250.05-20.18 250.92-19.65 251.52-19 252.12-18.35 252.42-17.85L252.42-17.85 252.42-38.85 256.72-38.85 256.72 0 252.42 0 252.42-1.55Q252.42-1.85 252.47-2.23 252.52-2.6 252.52-2.85L252.52-2.85Q252.02-2.25 251.35-1.68 250.67-1.1 249.77-0.6 248.87-0.1 247.7 0.2 246.52 0.5 245.02 0.5L245.02 0.5Q242.52 0.5 240.55-0.38 238.57-1.25 237.2-2.73 235.82-4.2 235.1-6.2 234.37-8.2 234.37-10.45ZM238.67-10.5L238.67-10.5Q238.67-9.05 239.2-7.8 239.72-6.55 240.62-5.65 241.52-4.75 242.77-4.23 244.02-3.7 245.52-3.7L245.52-3.7Q247.02-3.7 248.3-4.23 249.57-4.75 250.5-5.68 251.42-6.6 251.92-7.83 252.42-9.05 252.42-10.5L252.42-10.5Q252.42-11.95 251.92-13.18 251.42-14.4 250.5-15.3 249.57-16.2 248.3-16.73 247.02-17.25 245.52-17.25L245.52-17.25Q244.02-17.25 242.77-16.73 241.52-16.2 240.62-15.3 239.72-14.4 239.2-13.18 238.67-11.95 238.67-10.5ZM280.87-19.05L280.87-19.05 278.62-16.05Q278.57-16.1 278.27-16.3 277.97-16.5 277.49-16.7 277.02-16.9 276.39-17.07 275.77-17.25 275.12-17.25L275.12-17.25Q274.27-17.25 273.44-16.85 272.62-16.45 272.62-15.35L272.62-15.35Q272.62-14.4 273.29-13.8 273.97-13.2 274.97-12.73 275.97-12.25 277.14-11.75 278.32-11.25 279.32-10.53 280.32-9.8 280.99-8.72 281.67-7.65 281.67-6L281.67-6Q281.67-3.2 279.74-1.38 277.82 0.45 274.47 0.45L274.47 0.45Q272.52 0.45 270.64-0.23 268.77-0.9 267.62-2.2L267.62-2.2Q267.97-2.55 268.39-3.1 268.82-3.65 269.24-4.15 269.67-4.65 269.94-4.98 270.22-5.3 270.27-5.3L270.27-5.3Q270.27-5.25 270.64-5 271.02-4.75 271.62-4.48 272.22-4.2 272.97-3.98 273.72-3.75 274.47-3.75L274.47-3.75Q275.67-3.75 276.52-4.35 277.37-4.95 277.37-5.95L277.37-5.95Q277.37-6.85 276.69-7.38 276.02-7.9 275.02-8.35 274.02-8.8 272.82-9.28 271.62-9.75 270.62-10.5 269.62-11.25 268.94-12.38 268.27-13.5 268.27-15.3L268.27-15.3Q268.27-17 268.89-18.15 269.52-19.3 270.49-20.03 271.47-20.75 272.67-21.08 273.87-21.4 274.97-21.4L274.97-21.4Q276.42-21.4 278.07-20.8 279.72-20.2 280.87-19.05ZM288.02-20.85L288.02-30.1 292.27-30.1 292.27-20.85 297.87-20.85 297.87-17.05 292.27-17.05 292.27 0 288.02 0 288.02-17.05 284.27-17.05 284.27-20.85 288.02-20.85ZM322.06-20.9L307.16 10.05 302.86 10.05Q303.56 8.6 304.19 7.28 304.81 5.95 305.44 4.58 306.06 3.2 306.71 1.73 307.36 0.25 308.16-1.45L308.16-1.45Q307.01-3.7 305.81-6.18 304.61-8.65 303.41-11.15 302.21-13.65 301.04-16.15 299.86-18.65 298.71-20.9L298.71-20.9 303.36-20.9Q305.16-17.35 306.34-14.9 307.51-12.45 308.29-10.68 309.06-8.9 309.54-7.65 310.01-6.4 310.36-5.35L310.36-5.35Q310.76-6.4 311.24-7.65 311.71-8.9 312.49-10.68 313.26-12.45 314.44-14.9 315.61-17.35 317.41-20.9L317.41-20.9 322.06-20.9ZM329.66-38.85L329.66 0 325.41 0 325.41-38.85 329.66-38.85ZM350.21-5.55L353.41-2.45Q351.91-1.1 349.76-0.3 347.61 0.5 345.36 0.5L345.36 0.5Q343.06 0.5 341.03-0.38 339.01-1.25 337.51-2.73 336.01-4.2 335.13-6.2 334.26-8.2 334.26-10.45L334.26-10.45Q334.26-12.7 335.13-14.7 336.01-16.7 337.51-18.2 339.01-19.7 340.98-20.58 342.96-21.45 345.21-21.45L345.21-21.45Q348.76-21.45 351.38-19.33 354.01-17.2 355.16-13.75L355.16-13.75Q353.61-13.2 351.61-12.4 349.61-11.6 347.46-10.73 345.31-9.85 343.16-9 341.01-8.15 339.16-7.45L339.16-7.45Q340.01-5.75 341.63-4.73 343.26-3.7 345.26-3.7L345.26-3.7Q346.61-3.7 347.98-4.2 349.36-4.7 350.21-5.55L350.21-5.55ZM349.81-14.75L349.81-14.75Q349.21-16 347.91-16.63 346.61-17.25 345.26-17.25L345.26-17.25Q343.81-17.25 342.58-16.7 341.36-16.15 340.46-15.23 339.56-14.3 339.03-13.1 338.51-11.9 338.51-10.65L338.51-10.65Q338.51-10.4 338.53-10.3 338.56-10.2 338.56-10.15L338.56-10.15Q339.86-10.65 341.38-11.28 342.91-11.9 344.41-12.53 345.91-13.15 347.31-13.73 348.71-14.3 349.81-14.75ZM360-4.35L364.61-4.35 360.21 6.05 356.11 6.05Q357.11 3.45 358.06 0.88 359-1.7 360-4.35L360-4.35ZM391.9-5.55L395.1-2.45Q393.6-1.1 391.45-0.3 389.3 0.5 387.05 0.5L387.05 0.5Q384.75 0.5 382.73-0.38 380.7-1.25 379.2-2.73 377.7-4.2 376.83-6.2 375.95-8.2 375.95-10.45L375.95-10.45Q375.95-12.7 376.83-14.7 377.7-16.7 379.2-18.2 380.7-19.7 382.68-20.58 384.65-21.45 386.9-21.45L386.9-21.45Q390.45-21.45 393.08-19.33 395.7-17.2 396.85-13.75L396.85-13.75Q395.3-13.2 393.3-12.4 391.3-11.6 389.15-10.73 387-9.85 384.85-9 382.7-8.15 380.85-7.45L380.85-7.45Q381.7-5.75 383.33-4.73 384.95-3.7 386.95-3.7L386.95-3.7Q388.3-3.7 389.68-4.2 391.05-4.7 391.9-5.55L391.9-5.55ZM391.5-14.75L391.5-14.75Q390.9-16 389.6-16.63 388.3-17.25 386.95-17.25L386.95-17.25Q385.5-17.25 384.28-16.7 383.05-16.15 382.15-15.23 381.25-14.3 380.73-13.1 380.2-11.9 380.2-10.65L380.2-10.65Q380.2-10.4 380.23-10.3 380.25-10.2 380.25-10.15L380.25-10.15Q381.55-10.65 383.08-11.28 384.6-11.9 386.1-12.53 387.6-13.15 389-13.73 390.4-14.3 391.5-14.75ZM400.55 0L400.55-20.9 404.3-20.9Q404.4-19.35 404.47-18.07 404.55-16.8 404.65-15.55L404.65-15.55Q405.8-18.25 407.67-19.83 409.55-21.4 412.7-21.45L412.7-21.45Q415.75-21.45 417.6-19.9 419.45-18.35 419.75-15.85L419.75-15.85Q421-18.4 422.82-19.9 424.65-21.4 427.75-21.45L427.75-21.45Q431-21.45 432.87-19.7 434.75-17.95 434.85-15.2L434.85-15.2 434.85 0 430.55 0 430.55-13.25Q430.45-14.85 429.47-15.98 428.5-17.1 426.3-17.2L426.3-17.2Q423.3-17.2 421.6-15.28 419.9-13.35 419.8-10.35L419.8-10.35 419.8 0 415.55 0 415.55-13.25Q415.45-14.85 414.42-15.98 413.4-17.1 411.3-17.2L411.3-17.2Q409.8-17.2 408.6-16.68 407.4-16.15 406.55-15.25 405.7-14.35 405.25-13.1 404.8-11.85 404.8-10.35L404.8-10.35 404.8 0 400.55 0ZM463-10.4L463-10.4Q463-8.05 462.2-6.05 461.4-4.05 459.95-2.6 458.5-1.15 456.47-0.33 454.45 0.5 452.05 0.5L452.05 0.5Q450.8 0.5 449.67 0.23 448.55-0.05 447.6-0.53 446.65-1 445.95-1.58 445.25-2.15 444.9-2.75L444.9-2.75Q444.9-2.5 444.92-2.23 444.95-1.95 444.95-1.7L444.95-1.7 444.95 0 440.65 0 440.65-38.85 444.95-38.85 444.95-17.85Q445.35-18.45 446.02-19.07 446.7-19.7 447.62-20.23 448.55-20.75 449.7-21.1 450.85-21.45 452.25-21.45L452.25-21.45Q454.65-21.45 456.62-20.68 458.6-19.9 460.02-18.48 461.45-17.05 462.22-15 463-12.95 463-10.4ZM458.35-10.5L458.35-10.5Q458.35-11.95 457.9-13.18 457.45-14.4 456.6-15.3 455.75-16.2 454.55-16.73 453.35-17.25 451.85-17.25L451.85-17.25Q450.35-17.25 449.07-16.73 447.8-16.2 446.9-15.3 446-14.4 445.47-13.18 444.95-11.95 444.95-10.5L444.95-10.5Q444.95-9.05 445.47-7.8 446-6.55 446.9-5.65 447.8-4.75 449.07-4.23 450.35-3.7 451.85-3.7L451.85-3.7Q453.35-3.7 454.55-4.23 455.75-4.75 456.6-5.68 457.45-6.6 457.9-7.83 458.35-9.05 458.35-10.5ZM466.19-10.5L466.19-10.5Q466.19-12.75 467.07-14.75 467.94-16.75 469.44-18.23 470.94-19.7 472.97-20.58 474.99-21.45 477.34-21.45L477.34-21.45Q479.69-21.45 481.72-20.58 483.74-19.7 485.22-18.23 486.69-16.75 487.52-14.75 488.34-12.75 488.34-10.5L488.34-10.5Q488.34-8.25 487.52-6.25 486.69-4.25 485.22-2.75 483.74-1.25 481.72-0.38 479.69 0.5 477.29 0.5L477.29 0.5Q474.99 0.5 472.97-0.3 470.94-1.1 469.44-2.55 467.94-4 467.07-6.03 466.19-8.05 466.19-10.5ZM470.44-10.45L470.44-10.45Q470.44-9.05 470.97-7.83 471.49-6.6 472.42-5.68 473.34-4.75 474.57-4.23 475.79-3.7 477.19-3.7L477.19-3.7Q478.59-3.7 479.84-4.23 481.09-4.75 482.02-5.68 482.94-6.6 483.49-7.83 484.04-9.05 484.04-10.45L484.04-10.45Q484.04-11.85 483.49-13.1 482.94-14.35 482.02-15.28 481.09-16.2 479.84-16.73 478.59-17.25 477.19-17.25L477.19-17.25Q475.79-17.25 474.57-16.73 473.34-16.2 472.42-15.28 471.49-14.35 470.97-13.1 470.44-11.85 470.44-10.45ZM491.49-10.45L491.49-10.45Q491.49-12.9 492.32-14.93 493.14-16.95 494.59-18.4 496.04-19.85 498.02-20.65 499.99-21.45 502.29-21.45L502.29-21.45Q503.84-21.45 505.07-21.08 506.29-20.7 507.17-20.18 508.04-19.65 508.64-19 509.24-18.35 509.54-17.85L509.54-17.85 509.54-38.85 513.84-38.85 513.84 0 509.54 0 509.54-1.55Q509.54-1.85 509.59-2.23 509.64-2.6 509.64-2.85L509.64-2.85Q509.14-2.25 508.47-1.68 507.79-1.1 506.89-0.6 505.99-0.1 504.82 0.2 503.64 0.5 502.14 0.5L502.14 0.5Q499.64 0.5 497.67-0.38 495.69-1.25 494.32-2.73 492.94-4.2 492.22-6.2 491.49-8.2 491.49-10.45ZM495.79-10.5L495.79-10.5Q495.79-9.05 496.32-7.8 496.84-6.55 497.74-5.65 498.64-4.75 499.89-4.23 501.14-3.7 502.64-3.7L502.64-3.7Q504.14-3.7 505.42-4.23 506.69-4.75 507.62-5.68 508.54-6.6 509.04-7.83 509.54-9.05 509.54-10.5L509.54-10.5Q509.54-11.95 509.04-13.18 508.54-14.4 507.62-15.3 506.69-16.2 505.42-16.73 504.14-17.25 502.64-17.25L502.64-17.25Q501.14-17.25 499.89-16.73 498.64-16.2 497.74-15.3 496.84-14.4 496.32-13.18 495.79-11.95 495.79-10.5ZM519.29-28.9L519.29-28.9Q519.29-30.1 520.16-30.9 521.04-31.7 522.04-31.7L522.04-31.7Q523.04-31.7 523.89-30.9 524.74-30.1 524.74-28.9L524.74-28.9Q524.74-27.7 523.89-26.93 523.04-26.15 522.04-26.15L522.04-26.15Q521.04-26.15 520.16-26.93 519.29-27.7 519.29-28.9ZM524.09-20.9L524.09 0 519.84 0 519.84-20.9 524.09-20.9ZM544.58-5.55L547.78-2.45Q546.28-1.1 544.13-0.3 541.98 0.5 539.73 0.5L539.73 0.5Q537.43 0.5 535.41-0.38 533.38-1.25 531.88-2.73 530.38-4.2 529.51-6.2 528.63-8.2 528.63-10.45L528.63-10.45Q528.63-12.7 529.51-14.7 530.38-16.7 531.88-18.2 533.38-19.7 535.36-20.58 537.33-21.45 539.58-21.45L539.58-21.45Q543.13-21.45 545.76-19.33 548.38-17.2 549.53-13.75L549.53-13.75Q547.98-13.2 545.98-12.4 543.98-11.6 541.83-10.73 539.68-9.85 537.53-9 535.38-8.15 533.53-7.45L533.53-7.45Q534.38-5.75 536.01-4.73 537.63-3.7 539.63-3.7L539.63-3.7Q540.98-3.7 542.36-4.2 543.73-4.7 544.58-5.55L544.58-5.55ZM544.18-14.75L544.18-14.75Q543.58-16 542.28-16.63 540.98-17.25 539.63-17.25L539.63-17.25Q538.18-17.25 536.96-16.7 535.73-16.15 534.83-15.23 533.93-14.3 533.41-13.1 532.88-11.9 532.88-10.65L532.88-10.65Q532.88-10.4 532.91-10.3 532.93-10.2 532.93-10.15L532.93-10.15Q534.23-10.65 535.76-11.28 537.28-11.9 538.78-12.53 540.28-13.15 541.68-13.73 543.08-14.3 544.18-14.75ZM551.83-10.45L551.83-10.45Q551.83-12.9 552.66-14.93 553.48-16.95 554.93-18.4 556.38-19.85 558.36-20.65 560.33-21.45 562.63-21.45L562.63-21.45Q564.18-21.45 565.41-21.08 566.63-20.7 567.51-20.18 568.38-19.65 568.98-19 569.58-18.35 569.88-17.85L569.88-17.85 569.88-38.85 574.18-38.85 574.18 0 569.88 0 569.88-1.55Q569.88-1.85 569.93-2.23 569.98-2.6 569.98-2.85L569.98-2.85Q569.48-2.25 568.81-1.68 568.13-1.1 567.23-0.6 566.33-0.1 565.16 0.2 563.98 0.5 562.48 0.5L562.48 0.5Q559.98 0.5 558.01-0.38 556.03-1.25 554.66-2.73 553.28-4.2 552.56-6.2 551.83-8.2 551.83-10.45ZM556.13-10.5L556.13-10.5Q556.13-9.05 556.66-7.8 557.18-6.55 558.08-5.65 558.98-4.75 560.23-4.23 561.48-3.7 562.98-3.7L562.98-3.7Q564.48-3.7 565.76-4.23 567.03-4.75 567.96-5.68 568.88-6.6 569.38-7.83 569.88-9.05 569.88-10.5L569.88-10.5Q569.88-11.95 569.38-13.18 568.88-14.4 567.96-15.3 567.03-16.2 565.76-16.73 564.48-17.25 562.98-17.25L562.98-17.25Q561.48-17.25 560.23-16.73 558.98-16.2 558.08-15.3 557.18-14.4 556.66-13.18 556.13-11.95 556.13-10.5Z" opacity="1" transform="matrix(1,0,0,1,0,0)" fill="#000000" class="undefined-text-1" data-fill-palette-color="secondary" id="text-1"></path></svg></g></svg></g></svg></g></svg></g></svg></g><defs></defs></svg><rect width="395.52" height="79.21648966724047" fill="none" stroke="none" visibility="hidden"></rect></g></svg></g></svg>